<!-- <svg width="30" height="30" viewBox="0 0 30 30" fill="none" xmlns="http://www.w3.org/2000/svg">
<path d="M29.9802 14.8125C29.3737 3.51562 23.9268 1.86469 19.5365 1.86375C18.4265 1.86375 17.3849 1.96969 16.5055 2.05125C16.498 1.53844 16.5187 0.988125 16.5993 0.379688C16.6002 0.37125 16.5974 0.36375 16.5965 0.355313L16.5993 0.343125C16.5993 0.15375 16.2674 0 15.8559 0C15.4462 0 15.1143 0.15375 15.1143 0.343125C15.0018 0.955312 14.848 1.55906 14.6549 2.14875C8.86117 2.18625 1.22992 3.17062 0.0655405 14.4281C-0.779147 22.5984 6.66835 30 15.0468 30C23.4252 30 30.4209 23.0222 29.9802 14.8125ZM16.8177 3.63469L17.4524 3.5775C17.1899 3.69 16.9359 3.80719 16.6959 3.92531C16.679 3.84094 16.6668 3.73969 16.6509 3.64969L16.8177 3.63469ZM14.038 3.76219C13.9724 3.90844 13.9087 4.04906 13.8468 4.17844C13.7034 4.03983 13.5519 3.90991 13.393 3.78937L13.3809 3.78094C13.5993 3.7725 13.8187 3.76688 14.038 3.76219ZM25.3237 23.7469C22.8018 26.6006 19.1334 28.3913 15.0468 28.3941C11.0437 28.3941 7.06679 26.4956 4.40898 23.3156C2.2546 20.7375 1.2421 17.6456 1.55617 14.6062C2.14679 8.90156 4.50273 6.17719 7.52523 4.88625C10.4549 4.30406 13.2102 5.37375 13.2102 5.37375C13.2102 5.37375 6.94679 3.70687 4.49054 12.3309C7.58242 7.16719 12.9018 8.68688 14.3015 6.78375C14.3015 10.4634 16.7971 8.6775 18.059 10.3359C19.6818 12.4669 20.2762 16.2853 22.1427 17.0372C20.3043 12.8072 23.3146 12.9722 19.0846 7.29563C21.313 8.77875 22.469 7.27688 25.5112 8.61469C22.9077 4.05469 18.7424 5.37281 18.7424 5.37281C18.7424 5.37281 20.4384 3.71812 22.2355 3.76406C25.2712 4.52344 28.064 7.08 28.484 14.9044C28.6546 18.1003 27.5334 21.24 25.3246 23.7459L25.3237 23.7469Z" fill="white"/>
</svg> -->


<svg width="117" height="30" viewBox="0 0 117 30" fill="none" xmlns="http://www.w3.org/2000/svg">
<g filter="url(#filter0_d_0_1)">
<path d="M29.9802 14.8125C29.3737 3.51562 23.9268 1.86469 19.5365 1.86375C18.4265 1.86375 17.3849 1.96969 16.5055 2.05125C16.498 1.53844 16.5187 0.988125 16.5993 0.379687C16.6002 0.37125 16.5974 0.36375 16.5965 0.355312L16.5993 0.343125C16.5993 0.15375 16.2674 0 15.8559 0C15.4462 0 15.1143 0.15375 15.1143 0.343125C15.0018 0.955312 14.848 1.55906 14.6549 2.14875C8.86117 2.18625 1.22992 3.17062 0.0655405 14.4281C-0.779147 22.5984 6.66835 30 15.0468 30C23.4252 30 30.4209 23.0222 29.9802 14.8125ZM16.8177 3.63469L17.4524 3.5775C17.1899 3.69 16.9359 3.80719 16.6959 3.92531C16.679 3.84094 16.6668 3.73969 16.6509 3.64969L16.8177 3.63469ZM14.038 3.76219C13.9724 3.90844 13.9087 4.04906 13.8468 4.17844C13.7034 4.03983 13.5519 3.90991 13.393 3.78937L13.3809 3.78094C13.5993 3.7725 13.8187 3.76687 14.038 3.76219ZM25.3237 23.7469C22.8018 26.6006 19.1334 28.3913 15.0468 28.3941C11.0437 28.3941 7.06679 26.4956 4.40898 23.3156C2.2546 20.7375 1.2421 17.6456 1.55617 14.6062C2.14679 8.90156 4.50273 6.17719 7.52523 4.88625C10.4549 4.30406 13.2102 5.37375 13.2102 5.37375C13.2102 5.37375 6.94679 3.70687 4.49054 12.3309C7.58242 7.16719 12.9018 8.68687 14.3015 6.78375C14.3015 10.4634 16.7971 8.6775 18.059 10.3359C19.6818 12.4669 20.2762 16.2853 22.1427 17.0372C20.3043 12.8072 23.3146 12.9722 19.0846 7.29563C21.313 8.77875 22.469 7.27688 25.5112 8.61469C22.9077 4.05469 18.7424 5.37281 18.7424 5.37281C18.7424 5.37281 20.4384 3.71812 22.2355 3.76406C25.2712 4.52344 28.064 7.08 28.484 14.9044C28.6546 18.1003 27.5334 21.24 25.3246 23.7459L25.3237 23.7469Z" fill="#F3F3F3"/>
<path d="M0.562887 14.4796L0.0655405 14.4281L0.562887 14.4796ZM0.562887 14.4796C1.13231 8.97424 3.26493 6.07153 5.88049 4.51027C8.53412 2.92628 11.7711 2.66743 14.6582 2.64874L15.0181 2.64641L15.1301 2.30437C15.3193 1.72664 15.472 1.13591 15.5866 0.537039C15.6478 0.517426 15.7403 0.5 15.8559 0.5C15.9447 0.5 16.0199 0.510168 16.0778 0.523712C16.0148 1.07818 15.9987 1.58536 16.0056 2.05856L16.0135 2.59903M0.562887 14.4796C-0.247337 22.3165 6.92481 29.5 15.0468 29.5C23.1596 29.5 29.9051 22.7422 29.4809 14.8393C29.1814 9.26122 27.6924 6.17318 25.839 4.47034C23.986 2.76794 21.6765 2.36422 19.5365 2.36375L16.0135 2.59903M16.0135 2.59903L16.5517 2.54911M16.0135 2.59903L16.5517 2.54911M16.5517 2.54911C16.6177 2.54299 16.6845 2.53675 16.7519 2.53045M16.5517 2.54911L16.7519 2.53045M18.7424 5.37281L18.3932 5.01493L18.8924 5.84799C18.8928 5.84965 18.8928 5.84966 18.8928 5.84967L18.8933 5.84951L18.8963 5.84863C18.9011 5.84719 18.9098 5.84468 18.9221 5.84132C18.9466 5.83458 18.9856 5.82443 19.0377 5.81256C19.1418 5.7888 19.2976 5.75831 19.4942 5.73446C19.8882 5.68665 20.4394 5.66632 21.0639 5.77619C22.0296 5.9461 23.1988 6.43109 24.2488 7.66897C23.3805 7.47552 22.6732 7.49284 22.0434 7.50827C22.0224 7.50878 22.0015 7.50929 21.9807 7.50979C21.0594 7.53201 20.3435 7.5329 19.3616 6.87938L18.6837 7.59438C20.7621 10.3836 21.0053 11.6591 21.0105 12.7114C21.0116 12.925 21.0016 13.1396 20.9913 13.362C20.9665 13.8986 20.9395 14.4815 21.0596 15.2097C20.8569 14.8507 20.663 14.4427 20.4663 14.0005C20.3605 13.7625 20.2537 13.5136 20.1444 13.2587C19.6725 12.1582 19.1535 10.9479 18.4569 10.0332L18.7424 5.37281ZM18.7424 5.37281C18.3932 5.01493 18.3933 5.01483 18.3935 5.01473L18.3937 5.01449L18.3943 5.01389L18.396 5.01224L18.4013 5.00717L18.4192 4.9902C18.4343 4.97597 18.4558 4.95599 18.4832 4.93112C18.5382 4.8814 18.6172 4.81191 18.7172 4.72937C18.9167 4.56472 19.2023 4.34587 19.5488 4.12796C20.2286 3.70047 21.2037 3.23752 22.2483 3.26423L22.3034 3.26563L22.3569 3.27901C23.9796 3.68494 25.55 4.57948 26.7579 6.40939C27.955 8.22297 28.7706 10.9164 28.9833 14.8776L28.9833 14.8777C29.1612 18.2105 27.9909 21.4771 25.6997 24.0765L25.6893 24.0884L25.688 24.0896C23.0759 27.0391 19.2776 28.8912 15.0471 28.8941H15.0468C10.8896 28.8941 6.77429 26.9253 4.02533 23.6363L4.0253 23.6362C1.79386 20.9659 0.729428 17.7425 1.05881 14.5549L1.05882 14.5548C1.36016 11.6442 2.116 9.45315 3.21316 7.81308C4.31365 6.16805 5.73885 5.10553 7.32884 4.42643L7.37671 4.40599L7.42777 4.39584C8.9755 4.08828 10.4648 4.21845 11.5571 4.41998C12.1053 4.52113 12.5591 4.64129 12.8776 4.73678C13.0369 4.78456 13.1627 4.82628 13.2499 4.85652C13.2936 4.87165 13.3276 4.88392 13.3513 4.89266L13.3792 4.90305L13.3872 4.9061L13.3897 4.90706L13.3906 4.9074L13.3909 4.90754C13.391 4.90759 13.3912 4.90764 13.2102 5.37375L13.3912 4.90764L13.0839 5.85015C13.0821 5.85705 13.0822 5.85707 13.0822 5.85709L13.0744 5.85516C13.0662 5.85317 13.0523 5.84991 13.0331 5.84572C12.9946 5.83735 12.9346 5.82532 12.8558 5.81244C12.6978 5.78666 12.4649 5.75769 12.176 5.74776C11.5972 5.72785 10.8023 5.78459 9.93795 6.08979C8.67587 6.53541 7.20464 7.53262 6.04353 9.72996M18.7424 5.37281L6.04353 9.72996M6.04353 9.72996C7.29149 8.6957 8.65391 8.18365 9.90196 7.85143C10.3874 7.72222 10.8577 7.61958 11.2909 7.52518L11.2961 7.52405C11.732 7.42907 12.1249 7.34344 12.4795 7.24534C13.2086 7.04357 13.6559 6.81757 13.8987 6.48751L14.8015 5.26V6.78375C14.8015 7.65846 14.9519 8.12078 15.1256 8.37825C15.2873 8.61792 15.5117 8.74307 15.8429 8.83664C16.0068 8.88292 16.1809 8.91726 16.3824 8.95699L16.4123 8.96289C16.6187 9.00362 16.8513 9.05031 17.083 9.11975C17.5586 9.26226 18.0573 9.50806 18.4568 10.033L6.04353 9.72996ZM16.7519 2.53045C17.5894 2.45215 18.5349 2.36376 19.5364 2.36375L16.7519 2.53045ZM16.7729 3.13671L16.6061 3.1517L16.0635 3.20046L16.1585 3.73687C16.1642 3.76879 16.1693 3.80248 16.1755 3.84345C16.1765 3.85029 16.1776 3.85735 16.1787 3.86463C16.1858 3.91136 16.1946 3.96836 16.2056 4.02337L16.3331 4.66113L16.9167 4.37392C17.1489 4.25963 17.395 4.1461 17.6494 4.03707L17.4075 3.07952L16.773 3.1367L16.7729 3.13671ZM14.4942 3.96688L14.818 3.24541L14.0274 3.2623C13.8068 3.26702 13.5841 3.27271 13.3616 3.28131L11.8642 3.33915L13.0963 4.19204L13.0993 4.19412C13.2392 4.30081 13.3727 4.41561 13.4993 4.53792L13.9984 5.02041L14.2979 4.39417C14.3625 4.25892 14.4284 4.11356 14.4942 3.96688ZM18.8918 5.84997C18.8916 5.85004 18.8916 5.85004 18.8919 5.84996L18.8918 5.84997Z" stroke="black" stroke-opacity="0.2"/>
</g>
<path d="M57.688 21.16C56.8347 21.16 56.04 21.0213 55.304 20.744C54.5787 20.456 53.944 20.056 53.4 19.544C52.8667 19.0213 52.4507 18.408 52.152 17.704C51.8533 17 51.704 16.232 51.704 15.4C51.704 14.568 51.8533 13.8 52.152 13.096C52.4507 12.392 52.872 11.784 53.416 11.272C53.96 10.7493 54.5947 10.3493 55.32 10.072C56.0453 9.784 56.84 9.64 57.704 9.64C58.6213 9.64 59.4587 9.8 60.216 10.12C60.9733 10.4293 61.6133 10.8933 62.136 11.512L60.792 12.776C60.3867 12.3387 59.9333 12.0133 59.432 11.8C58.9307 11.576 58.3867 11.464 57.8 11.464C57.2133 11.464 56.6747 11.56 56.184 11.752C55.704 11.944 55.2827 12.216 54.92 12.568C54.568 12.92 54.2907 13.336 54.088 13.816C53.896 14.296 53.8 14.824 53.8 15.4C53.8 15.976 53.896 16.504 54.088 16.984C54.2907 17.464 54.568 17.88 54.92 18.232C55.2827 18.584 55.704 18.856 56.184 19.048C56.6747 19.24 57.2133 19.336 57.8 19.336C58.3867 19.336 58.9307 19.2293 59.432 19.016C59.9333 18.792 60.3867 18.456 60.792 18.008L62.136 19.288C61.6133 19.896 60.9733 20.36 60.216 20.68C59.4587 21 58.616 21.16 57.688 21.16ZM68.9294 21.16C67.3934 21.16 66.188 20.728 65.3134 19.864C64.4494 19 64.0174 17.752 64.0174 16.12V9.8H66.0974V16.04C66.0974 17.192 66.3427 18.0293 66.8334 18.552C67.3347 19.0747 68.0387 19.336 68.9454 19.336C69.852 19.336 70.5507 19.0747 71.0414 18.552C71.532 18.0293 71.7774 17.192 71.7774 16.04V9.8H73.8254V16.12C73.8254 17.752 73.388 19 72.5134 19.864C71.6494 20.728 70.4547 21.16 68.9294 21.16ZM81.9224 21.16C81.069 21.16 80.2744 21.0213 79.5384 20.744C78.813 20.456 78.1784 20.056 77.6344 19.544C77.101 19.0213 76.685 18.408 76.3864 17.704C76.0877 17 75.9384 16.232 75.9384 15.4C75.9384 14.568 76.0877 13.8 76.3864 13.096C76.685 12.392 77.1064 11.784 77.6504 11.272C78.1944 10.7493 78.829 10.3493 79.5544 10.072C80.2797 9.784 81.0744 9.64 81.9384 9.64C82.8557 9.64 83.693 9.8 84.4504 10.12C85.2077 10.4293 85.8477 10.8933 86.3704 11.512L85.0264 12.776C84.621 12.3387 84.1677 12.0133 83.6664 11.8C83.165 11.576 82.621 11.464 82.0344 11.464C81.4477 11.464 80.909 11.56 80.4184 11.752C79.9384 11.944 79.517 12.216 79.1544 12.568C78.8024 12.92 78.525 13.336 78.3224 13.816C78.1304 14.296 78.0344 14.824 78.0344 15.4C78.0344 15.976 78.1304 16.504 78.3224 16.984C78.525 17.464 78.8024 17.88 79.1544 18.232C79.517 18.584 79.9384 18.856 80.4184 19.048C80.909 19.24 81.4477 19.336 82.0344 19.336C82.621 19.336 83.165 19.2293 83.6664 19.016C84.1677 18.792 84.621 18.456 85.0264 18.008L86.3704 19.288C85.8477 19.896 85.2077 20.36 84.4504 20.68C83.693 21 82.8504 21.16 81.9224 21.16ZM88.3634 21V9.8H90.4434V21H88.3634ZM93.4728 21V9.8H95.1848L102.209 18.424H101.361V9.8H103.425V21H101.713L94.6888 12.376H95.5368V21H93.4728ZM104.842 21L109.882 9.8H111.93L116.986 21H114.81L110.474 10.904H111.306L106.986 21H104.842ZM107.162 18.408L107.722 16.776H113.77L114.33 18.408H107.162Z" fill="#F3F3F3"/>
<defs>
<filter id="filter0_d_0_1" x="-4" y="0" width="38" height="38" filterUnits="userSpaceOnUse" color-interpolation-filters="sRGB">
<feFlood flood-opacity="0" result="BackgroundImageFix"/>
<feColorMatrix in="SourceAlpha" type="matrix" values="0 0 0 0 0 0 0 0 0 0 0 0 0 0 0 0 0 0 127 0" result="hardAlpha"/>
<feOffset dy="4"/>
<feGaussianBlur stdDeviation="2"/>
<feComposite in2="hardAlpha" operator="out"/>
<feColorMatrix type="matrix" values="0 0 0 0 0 0 0 0 0 0 0 0 0 0 0 0 0 0 0.25 0"/>
<feBlend mode="normal" in2="BackgroundImageFix" result="effect1_dropShadow_0_1"/>
<feBlend mode="normal" in="SourceGraphic" in2="effect1_dropShadow_0_1" result="shape"/>
</filter>
</defs>
</svg>
